{"asset":{"generator":"Khronos glTF Spline I/O v0.0.1","version":"2.0"},"scenes":[{"nodes":[0]}],"nodes":[{"name":"","children":[1,2,3,4]},{"name":"T 2","matrix":[100,0,0,0,0,-0.0000162920679613876,-99.99999999999864,0,0,99.99999999999864,-0.0000162920679613876,0,-70,0.0000051582424589469156,-211.07385734588343,1],"mesh":0},{"name":"T","matrix":[100,0,0,0,0,-0.0000162920679613876,-99.99999999999864,0,0,99.99999999999864,-0.0000162920679613876,0,0,0,-211.07385734588337,1],"mesh":1},{"name":"Directional Light","translation":[200,300,300],"rotation":[-0.4062840720729887,0.12301291902225084,-0.2623788760260691,0.8665785595944042],"extensions":{"KHR_lights_punctual":{"light":0}}},{"name":"Personal Camera","camera":0,"translation":[47,69.00000000000006,1000],"rotation":[-2.842170943040401e-17,0,0,1]}],"cameras":[{"type":"orthographic","orthographic":{"xmag":1920,"ymag":969,"zfar":100000,"znear":-100000}}],"meshes":[{"primitives":[{"attributes":{"POSITION":0,"NORMAL":1,"TEXCOORD_0":2}}]},{"primitives":[{"attributes":{"POSITION":3,"NORMAL":4,"TEXCOORD_0":5}}]}],"buffers":[{"uri":"data:application/octet-stream;base64,","byteLength":13056},{"uri":"data:application/octet-stream;base64,","byteLength":13056}],"bufferViews":[{"buffer":0,"byteOffset":0,"byteLength":4896,"target":34962},{"buffer":0,"byteOffset":4896,"byteLength":4896,"target":34962},{"buffer":0,"byteOffset":9792,"byteLength":3264,"target":34962},{"buffer":1,"byteOffset":0,"byteLength":4896,"target":34962},{"buffer":1,"byteOffset":4896,"byteLength":4896,"target":34962},{"buffer":1,"byteOffset":9792,"byteLength":3264,"target":34962}],"accessors":[{"bufferView":0,"byteOffset":0,"componentType":5126,"count":408,"type":"VEC3","min":[0,0,0],"max":[0.601965069770813,0.3166106641292572,0.762265682220459]},{"bufferView":1,"byteOffset":0,"componentType":5126,"count":408,"type":"VEC3","min":[-0.9909237027168274,-1,-0.9717159271240234],"max":[0.9909238219261169,1,0.9956766963005066]},{"bufferView":2,"byteOffset":0,"componentType":5126,"count":408,"type":"VEC2","min":[0,0],"max":[0.9999999403953552,0.9999999403953552]},{"bufferView":3,"byteOffset":0,"componentType":5126,"count":408,"type":"VEC3","min":[0,0,0],"max":[0.601965069770813,0.3166106641292572,0.762265682220459]},{"bufferView":4,"byteOffset":0,"componentType":5126,"count":408,"type":"VEC3","min":[-0.9909237027168274,-1,-0.9717159271240234],"max":[0.9909238219261169,1,0.9956766963005066]},{"bufferView":5,"byteOffset":0,"componentType":5126,"count":408,"type":"VEC2","min":[0,0],"max":[0.9999999403953552,0.9999999403953552]}],"extensions":{"KHR_lights_punctual":{"lights":[{"type":"directional","name":"Directional Light","color":[1,1,1],"intensity":0.7}]}},"extensionsUsed":["KHR_lights_punctual"]}